<mxfile host="app.diagrams.net" modified="2024-08-05T13:44:51.241Z" agent="Mozilla/5.0 (Windows NT 10.0; Win64; x64) AppleWebKit/537.36 (KHTML, like Gecko) Chrome/127.0.0.0 Safari/537.36" etag="V__Wkv0YHmJ9XU5PU4FP" version="24.3.1" type="device">
  <diagram name="Página-1" id="yjs5tfgsWrGxYvckwBnj">
    <mxGraphModel dx="574" dy="312" grid="1" gridSize="10" guides="1" tooltips="1" connect="1" arrows="1" fold="1" page="1" pageScale="1" pageWidth="827" pageHeight="1169" math="0" shadow="0">
      <root>
        <mxCell id="0" />
        <mxCell id="1" parent="0" />
        <mxCell id="Ab79eVzVoHqPX0dF_cE4-1" value="&lt;div&gt;Projeto: Escola 1.0&lt;/div&gt;MER - DER&lt;div&gt;Modelo Conceitual&lt;/div&gt;" style="text;html=1;align=center;verticalAlign=middle;whiteSpace=wrap;rounded=0;" vertex="1" parent="1">
          <mxGeometry x="320" y="40" width="150" height="60" as="geometry" />
        </mxCell>
        <mxCell id="Ab79eVzVoHqPX0dF_cE4-18" style="rounded=0;orthogonalLoop=1;jettySize=auto;html=1;exitX=0.5;exitY=1;exitDx=0;exitDy=0;entryX=1;entryY=0.5;entryDx=0;entryDy=0;endArrow=none;endFill=0;" edge="1" parent="1" source="Ab79eVzVoHqPX0dF_cE4-2" target="Ab79eVzVoHqPX0dF_cE4-4">
          <mxGeometry relative="1" as="geometry" />
        </mxCell>
        <mxCell id="Ab79eVzVoHqPX0dF_cE4-2" value="Aluno" style="whiteSpace=wrap;html=1;align=center;" vertex="1" parent="1">
          <mxGeometry x="315" y="120" width="100" height="40" as="geometry" />
        </mxCell>
        <mxCell id="Ab79eVzVoHqPX0dF_cE4-4" value="id" style="ellipse;whiteSpace=wrap;html=1;align=center;fontStyle=4;" vertex="1" parent="1">
          <mxGeometry x="195" y="180" width="80" height="30" as="geometry" />
        </mxCell>
        <mxCell id="Ab79eVzVoHqPX0dF_cE4-5" value="nome" style="ellipse;whiteSpace=wrap;html=1;align=center;" vertex="1" parent="1">
          <mxGeometry x="215" y="230" width="80" height="30" as="geometry" />
        </mxCell>
        <mxCell id="Ab79eVzVoHqPX0dF_cE4-7" value="email" style="ellipse;whiteSpace=wrap;html=1;align=center;" vertex="1" parent="1">
          <mxGeometry x="405" y="240" width="80" height="30" as="geometry" />
        </mxCell>
        <mxCell id="Ab79eVzVoHqPX0dF_cE4-8" value="telefones" style="ellipse;shape=doubleEllipse;margin=3;whiteSpace=wrap;html=1;align=center;" vertex="1" parent="1">
          <mxGeometry x="315" y="250" width="80" height="35" as="geometry" />
        </mxCell>
        <mxCell id="Ab79eVzVoHqPX0dF_cE4-9" value="nascimento" style="ellipse;whiteSpace=wrap;html=1;align=center;" vertex="1" parent="1">
          <mxGeometry x="455" y="200" width="80" height="30" as="geometry" />
        </mxCell>
        <mxCell id="Ab79eVzVoHqPX0dF_cE4-10" value="idade" style="ellipse;whiteSpace=wrap;html=1;align=center;dashed=1;" vertex="1" parent="1">
          <mxGeometry x="485" y="160" width="80" height="30" as="geometry" />
        </mxCell>
        <mxCell id="Ab79eVzVoHqPX0dF_cE4-11" value="chave primária--&amp;gt;" style="text;html=1;align=center;verticalAlign=middle;whiteSpace=wrap;rounded=0;fontColor=#ff0000;labelBorderColor=none;" vertex="1" parent="1">
          <mxGeometry x="95" y="180" width="100" height="30" as="geometry" />
        </mxCell>
        <mxCell id="Ab79eVzVoHqPX0dF_cE4-12" value="&amp;lt;--atributo comum" style="text;html=1;align=center;verticalAlign=middle;whiteSpace=wrap;rounded=0;fontColor=#ff0000;labelBorderColor=none;" vertex="1" parent="1">
          <mxGeometry x="535" y="200" width="100" height="30" as="geometry" />
        </mxCell>
        <mxCell id="Ab79eVzVoHqPX0dF_cE4-13" value="^&lt;div&gt;|&lt;/div&gt;&lt;div&gt;|&lt;br&gt;&lt;div&gt;atributo multivalorado&lt;/div&gt;&lt;/div&gt;" style="text;html=1;align=center;verticalAlign=middle;whiteSpace=wrap;rounded=0;fontColor=#ff0000;labelBorderColor=none;" vertex="1" parent="1">
          <mxGeometry x="285" y="285" width="140" height="55" as="geometry" />
        </mxCell>
        <mxCell id="Ab79eVzVoHqPX0dF_cE4-14" value="&amp;lt;--atributo derivado" style="text;html=1;align=center;verticalAlign=middle;whiteSpace=wrap;rounded=0;fontColor=#ff0000;labelBorderColor=none;" vertex="1" parent="1">
          <mxGeometry x="565" y="160" width="115" height="30" as="geometry" />
        </mxCell>
        <mxCell id="Ab79eVzVoHqPX0dF_cE4-15" value="pri_nome" style="ellipse;whiteSpace=wrap;html=1;align=center;" vertex="1" parent="1">
          <mxGeometry x="170" y="285" width="80" height="30" as="geometry" />
        </mxCell>
        <mxCell id="Ab79eVzVoHqPX0dF_cE4-16" value="sobrenome" style="ellipse;whiteSpace=wrap;html=1;align=center;" vertex="1" parent="1">
          <mxGeometry x="255" y="285" width="80" height="30" as="geometry" />
        </mxCell>
        <mxCell id="Ab79eVzVoHqPX0dF_cE4-17" value="atributo composto--&amp;gt;" style="text;html=1;align=center;verticalAlign=middle;whiteSpace=wrap;rounded=0;fontColor=#ff0000;labelBorderColor=none;" vertex="1" parent="1">
          <mxGeometry x="95" y="230" width="120" height="30" as="geometry" />
        </mxCell>
        <mxCell id="Ab79eVzVoHqPX0dF_cE4-19" style="rounded=0;orthogonalLoop=1;jettySize=auto;html=1;exitX=0.5;exitY=1;exitDx=0;exitDy=0;entryX=0.5;entryY=0;entryDx=0;entryDy=0;endArrow=none;endFill=0;" edge="1" parent="1" source="Ab79eVzVoHqPX0dF_cE4-2" target="Ab79eVzVoHqPX0dF_cE4-5">
          <mxGeometry relative="1" as="geometry">
            <mxPoint x="375" y="170" as="sourcePoint" />
            <mxPoint x="285" y="205" as="targetPoint" />
          </mxGeometry>
        </mxCell>
        <mxCell id="Ab79eVzVoHqPX0dF_cE4-20" style="rounded=0;orthogonalLoop=1;jettySize=auto;html=1;exitX=0.5;exitY=1;exitDx=0;exitDy=0;entryX=0.5;entryY=0;entryDx=0;entryDy=0;endArrow=none;endFill=0;" edge="1" parent="1" source="Ab79eVzVoHqPX0dF_cE4-2" target="Ab79eVzVoHqPX0dF_cE4-8">
          <mxGeometry relative="1" as="geometry">
            <mxPoint x="375" y="170" as="sourcePoint" />
            <mxPoint x="265" y="240" as="targetPoint" />
          </mxGeometry>
        </mxCell>
        <mxCell id="Ab79eVzVoHqPX0dF_cE4-21" style="rounded=0;orthogonalLoop=1;jettySize=auto;html=1;exitX=0.5;exitY=1;exitDx=0;exitDy=0;entryX=0.5;entryY=0;entryDx=0;entryDy=0;endArrow=none;endFill=0;" edge="1" parent="1" source="Ab79eVzVoHqPX0dF_cE4-2" target="Ab79eVzVoHqPX0dF_cE4-7">
          <mxGeometry relative="1" as="geometry">
            <mxPoint x="375" y="170" as="sourcePoint" />
            <mxPoint x="385" y="260" as="targetPoint" />
          </mxGeometry>
        </mxCell>
        <mxCell id="Ab79eVzVoHqPX0dF_cE4-23" style="rounded=0;orthogonalLoop=1;jettySize=auto;html=1;exitX=0.5;exitY=1;exitDx=0;exitDy=0;entryX=0;entryY=0;entryDx=0;entryDy=0;endArrow=none;endFill=0;" edge="1" parent="1" source="Ab79eVzVoHqPX0dF_cE4-2" target="Ab79eVzVoHqPX0dF_cE4-9">
          <mxGeometry relative="1" as="geometry">
            <mxPoint x="375" y="170" as="sourcePoint" />
            <mxPoint x="455" y="250" as="targetPoint" />
          </mxGeometry>
        </mxCell>
        <mxCell id="Ab79eVzVoHqPX0dF_cE4-24" style="rounded=0;orthogonalLoop=1;jettySize=auto;html=1;exitX=0.5;exitY=1;exitDx=0;exitDy=0;entryX=0;entryY=0.5;entryDx=0;entryDy=0;endArrow=none;endFill=0;" edge="1" parent="1" source="Ab79eVzVoHqPX0dF_cE4-2" target="Ab79eVzVoHqPX0dF_cE4-10">
          <mxGeometry relative="1" as="geometry">
            <mxPoint x="375" y="170" as="sourcePoint" />
            <mxPoint x="476" y="214" as="targetPoint" />
          </mxGeometry>
        </mxCell>
        <mxCell id="Ab79eVzVoHqPX0dF_cE4-25" style="rounded=0;orthogonalLoop=1;jettySize=auto;html=1;exitX=0.5;exitY=1;exitDx=0;exitDy=0;entryX=0.5;entryY=0;entryDx=0;entryDy=0;endArrow=none;endFill=0;" edge="1" parent="1" source="Ab79eVzVoHqPX0dF_cE4-5" target="Ab79eVzVoHqPX0dF_cE4-15">
          <mxGeometry relative="1" as="geometry">
            <mxPoint x="375" y="170" as="sourcePoint" />
            <mxPoint x="265" y="240" as="targetPoint" />
          </mxGeometry>
        </mxCell>
        <mxCell id="Ab79eVzVoHqPX0dF_cE4-26" style="rounded=0;orthogonalLoop=1;jettySize=auto;html=1;exitX=0.5;exitY=1;exitDx=0;exitDy=0;entryX=0.5;entryY=0;entryDx=0;entryDy=0;endArrow=none;endFill=0;" edge="1" parent="1" source="Ab79eVzVoHqPX0dF_cE4-5" target="Ab79eVzVoHqPX0dF_cE4-16">
          <mxGeometry relative="1" as="geometry">
            <mxPoint x="265" y="270" as="sourcePoint" />
            <mxPoint x="212" y="293" as="targetPoint" />
          </mxGeometry>
        </mxCell>
      </root>
    </mxGraphModel>
  </diagram>
</mxfile>
